<?xml version="1.0" encoding="UTF-8" standalone="no"?>
<!-- Created with Inkscape (http://www.inkscape.org/) -->

<svg
   xmlns:dc="http://purl.org/dc/elements/1.1/"
   xmlns:cc="http://creativecommons.org/ns#"
   xmlns:rdf="http://www.w3.org/1999/02/22-rdf-syntax-ns#"
   xmlns:svg="http://www.w3.org/2000/svg"
   xmlns="http://www.w3.org/2000/svg"
   xmlns:sodipodi="http://sodipodi.sourceforge.net/DTD/sodipodi-0.dtd"
   xmlns:inkscape="http://www.inkscape.org/namespaces/inkscape"
   width="181.9882mm"
   height="115.95629mm"
   viewBox="0 0 644.8401 410.86875"
   id="svg4238"
   version="1.1"
   inkscape:version="0.91 r13725"
   sodipodi:docname="cuplogo.svg">
  <metadata
     id="metadata4243">
    <rdf:RDF>
      <cc:Work
         rdf:about="">
        <dc:format>image/svg+xml</dc:format>
        <dc:type
           rdf:resource="http://purl.org/dc/dcmitype/StillImage" />
        <dc:title />
      </cc:Work>
    </rdf:RDF>
  </metadata>
  <g transform="translate(-37.579964,-135.49927)">
    <g id="cup" transform="matrix(1.1421528,0,0,-1.1421528,265.93398,460.73095)">
      <path stroke="none"
         d="M 19.414062 0 C 3.1765624 0 1.1796875 21.435547 1.1796875 21.435547 C 1.1796875 21.435547 -1.010625 218.22172 0.578125 339.07422 C 4.983125 404.19047 70.074219 410.86914 70.074219 410.86914 C 70.074219 410.86914 292.20047 410.21906 391.57422 409.57031 C 457.08672 398.09406 463.66633 340.62656 463.01758 309.19531 C 579.92633 315.69031 662.41141 233.19547 641.62891 123.41797 C 620.84391 13.641718 511.08008 3.7895613e-014 511.08008 0 L 19.414062 0 z M 465.11133 78.703125 L 512.63672 78.703125 C 512.63672 78.703125 565.61719 93.502734 565.61719 149.58398 C 565.61719 200.99148 539.12953 221.2443 510.30078 230.5918 C 485.36828 233.7068 465.11133 231.36914 465.11133 231.36914 L 465.11133 78.703125 z M 297.43945 96.175781 C 306.17 96.163427 315.4364 97.830907 325.02148 101.95508 C 376.1431 123.9518 374.20152 182.82197 344.43359 217.75586 C 310.96509 256.80606 236.67383 324.61133 236.67383 324.61133 C 236.67383 324.61133 233.43038 327.78856 228.35352 325.23242 C 226.31135 323.72364 225.44336 322.81445 225.44336 322.81445 C 213.53185 310.96804 134.94095 240.92002 117.06055 216.57617 C 98.012865 190.64245 89.097223 144.04546 114.62891 116.89648 C 140.16173 89.747512 195.36519 87.716198 231.83984 127.83203 C 231.83984 127.83203 259.60707 96.229315 297.43945 96.175781 z "
         transform="matrix(0.8755396,0,0,-0.8755396,-199.93298,284.75321)"
         id="path38" />
    </g>
  </g>
</svg>
